<svg xmlns="http://www.w3.org/2000/svg" viewBox="0 0 24 24">
  <circle cx="12" cy="12" r="10" fill="#fff"/>
  <path d="M12 2a10 10 0 0 0-8.66 5h5.66a5 5 0 0 1 6 0h5.66A10 10 0 0 0 12 2z" fill="#EA4335"/>
  <path d="M3.34 7A10 10 0 0 0 7 19.66l2.83-4.9a5 5 0 0 1-3-5.19L3.34 7z" fill="#FBBC05"/>
  <path d="M7 19.66A10 10 0 0 0 20.66 17l-5.66 0a5 5 0 0 1-5.17 2.83L7 19.66z" fill="#34A853"/>
  <path d="M20.66 17A10 10 0 0 0 17 4.34l-2.83 4.9a5 5 0 0 1 1.66 5.76L20.66 17z" fill="#4285F4"/>
  <circle cx="12" cy="12" r="4" fill="#fff"/>
  <circle cx="12" cy="12" r="3" fill="#4285F4"/>
</svg>
