<svg xmlns="http://www.w3.org/2000/svg" viewBox="0 0 24 24" fill="none">
  <path d="M21.86 17.86q.14 0 .25.12.1.13.1.25-.04.28-.12.57-.1.28-.27.55l-.07.14q-.85 1.57-2.22 2.79-1.36 1.22-3.15 1.9-1.78.67-3.83.67-2.03 0-3.85-.74-1.83-.73-3.2-2.02-1.36-1.3-2.17-3.05Q2.52 17.29 2.4 15.3q-.11-1.99.52-3.82.63-1.83 1.89-3.26 1.26-1.44 3.02-2.32 1.76-.89 3.9-.95h.16q1.83-.06 3.46.44 1.63.5 2.9 1.49 1.27.99 2.05 2.39.78 1.4.95 3.13.03.2-.11.35-.14.15-.35.15H9.53q-.2 0-.35-.15-.14-.15-.14-.35 0-.5.17-.96.17-.47.5-.85.32-.38.76-.64.45-.25 1-.34.13-.02.25-.02h6.07q-.29-.83-.85-1.52-.56-.7-1.29-1.19-.73-.5-1.58-.77-.84-.27-1.74-.27-1.47 0-2.71.54-1.25.54-2.15 1.48-.9.94-1.4 2.2-.5 1.27-.5 2.73 0 1.15.32 2.16.33 1.01.94 1.87.6.86 1.46 1.54.86.67 1.91 1.09 1.05.42 2.23.54 1.17.12 2.37-.1 1.2-.22 2.34-.79 1.13-.57 2.07-1.5h.01q.1-.1.24-.1z" fill="#0078D4"/>
</svg>
