<svg xmlns="http://www.w3.org/2000/svg" viewBox="0 0 24 24">
  <defs>
    <linearGradient id="firefox-a" x1="0%" y1="0%" x2="100%" y2="100%">
      <stop offset="0%" stop-color="#FF980E"/>
      <stop offset="100%" stop-color="#FF5722"/>
    </linearGradient>
  </defs>
  <circle cx="12" cy="12" r="10" fill="url(#firefox-a)"/>
  <path d="M19.5 9.5c-.2-1.5-1-2.8-2-3.8-.5-.5-1-.9-1.5-1.2.3.5.5 1 .6 1.5.1.5.1 1 0 1.5-.2-.8-.6-1.5-1.2-2-.6-.6-1.4-1-2.2-1.2.4.3.7.7.9 1.2.2.4.3.9.2 1.4-.1.5-.3 1-.6 1.4-.3.4-.7.7-1.1.9-.4.2-.9.3-1.4.3-.5 0-1-.1-1.4-.4-.4-.2-.8-.5-1-.9-.3-.4-.4-.8-.4-1.3 0-.5.1-.9.3-1.3-1.5.8-2.6 2.2-3 3.8-.4 1.6-.2 3.3.7 4.7.8 1.4 2.2 2.4 3.8 2.8 1.6.4 3.3.2 4.7-.7 1.4-.8 2.4-2.2 2.8-3.8.4-1.1.4-2.2.2-3.3z" fill="#fff" opacity="0.9"/>
</svg>
